# xmcd CD database file
#
# Track frame offsets:
#	150
#	6605
#	11246
#	26174
#	40644
#	70651
#	86317
#	99002
#	150980
#	168379
#	178750
#	207229
#	228309
#
# Disc length: 3113 seconds
#
# Revision: 0
# Processed by: cddbd v1.5.2PL0 Copyright (c) Steve Scherf et al.
# Submitted via: CDex 1.70beta2
#
DISCID=950c270d
DTITLE=Larry Maurice - Cowboy - The Spirit, The Lore, The Legacy
DYEAR=1997
DGENRE=Country
TTITLE0=Cow Camp Symphony
TTITLE1=The Journey
TTITLE2=Mirrors And Smoke
TTITLE3=Close To The Leather
TTITLE4=Reasonable Ranching
TTITLE5=Gettin' Hitched
TTITLE6=Just Ramblin'
TTITLE7=Silent Stillwell's Water Trough
TTITLE8=The Look
TTITLE9=A Wonderful Thing
TTITLE10=Ben Johnson
TTITLE11=The Legacy
TTITLE12=Campfire Ashes
EXTD=YEAR: 1997
EXTT0=
EXTT1=
EXTT2=
EXTT3=
EXTT4=
EXTT5=
EXTT6=
EXTT7=
EXTT8=
EXTT9=
EXTT10=
EXTT11=
EXTT12=
PLAYORDER=
